# xmcd CD database file
#
# Track frame offsets:
#	150
#	18760
#	34010
#	52430
#	69570
#	87972
#	113947
#	144972
#	165590
#	184587
#	200587
#	220132
#
# Disc length: 3227 seconds
#
# Revision: 2
# Processed by: cddbd v1.5.2PL0 Copyright (c) Steve Scherf et al.
# Submitted via: CDex 1.70beta2
#
DISCID=a70c990c
DTITLE=TAKUI - NUCLEAR SONIC PUNK
DYEAR=2000
DGENRE=Rock
TTITLE0=UP TO DATE
TTITLE1=イノヴェイター
TTITLE2=TO THE MAX
TTITLE3=MUST BE STRONG
TTITLE4=I'm A Sod
TTITLE5=ALIVE
TTITLE6=さらば摩天楼のFairy Tale
TTITLE7=ROLL UP FOR THE UNIVERSE
TTITLE8=BADLY NOOOO!!!!
TTITLE9=TOO MUCH BUSINESS
TTITLE10=BEAT YOURSELF BLIND
TTITLE11=mother sky
EXTD=YEAR: 2000
EXTT0=
EXTT1=
EXTT2=
EXTT3=
EXTT4=
EXTT5=
EXTT6=
EXTT7=
EXTT8=
EXTT9=
EXTT10=
EXTT11=
PLAYORDER=
